Coordinates
version=1
nRows=7
nColumns=40
inDegrees=yes

Units are S.I. units (second, meters, Newtons, ...)
Angles are in degrees.

endheader
time	pelvis_tilt	pelvis_list	pelvis_rotation	pelvis_tx	pelvis_ty	pelvis_tz	hip_flexion_r	hip_adduction_r	hip_rotation_r	knee_angle_r	knee_angle_r_beta	ankle_angle_r	subtalar_angle_r	mtp_angle_r	hip_flexion_l	hip_adduction_l	hip_rotation_l	knee_angle_l	knee_angle_l_beta	ankle_angle_l	subtalar_angle_l	mtp_angle_l	lumbar_extension	lumbar_bending	lumbar_rotation	arm_flex_r	arm_add_r	arm_rot_r	elbow_flex_r	pro_sup_r	wrist_flex_r	wrist_dev_r	arm_flex_l	arm_add_l	arm_rot_l	elbow_flex_l	pro_sup_l	wrist_flex_l	wrist_dev_l
     19.98000000	     -2.14220664	     -4.34257917	      2.39800522	      1.06756909	      0.93293768	      0.49150587	     11.42769343	      2.22520315	    -13.82187060	     16.58062931	     16.58062931	      9.34728954	     -0.25033571	     -5.11511783	     27.37891481	    -11.44017437	      1.88265835	     55.14935305	     55.14935305	     10.83815933	    -17.98792376	     10.85991707	    -10.32264470	      5.66098906	      1.69351412	     22.05013013	    -17.36473163	      1.74560730	     47.74064197	     45.00060753	      0.00000000	      0.00000000	      6.63652814	     -8.95630940	     -1.84413258	     31.34148297	     44.76787161	      0.00000000	      0.00000000
     19.99350000	     -2.28955723	     -4.24053001	      3.00494935	      1.06664312	      0.93344506	      0.49180725	     10.84107172	      2.20696576	    -14.24107338	     15.84967890	     15.84967890	      9.39976368	     -0.19230550	     -5.09319677	     28.47423764	    -11.26143559	      1.64860018	     52.43501409	     52.43501409	     11.01406306	    -18.15902156	     11.07764675	    -10.18880670	      5.46275726	      1.44393015	     23.88412570	    -17.34180254	      1.54741880	     49.14467496	     44.97489673	      0.00000000	      0.00000000	      5.38580710	     -8.74385638	     -1.63236109	     30.43468958	     44.73595149	      0.00000000	      0.00000000
     20.00700000	     -2.35631246	     -4.22037940	      3.60746515	      1.06572457	      0.93392785	      0.49208342	     10.18407312	      2.29273397	    -14.64301047	     15.13439696	     15.13439696	      9.44297353	     -0.17156431	     -5.10952214	     29.26188550	    -11.11470489	      1.38163603	     49.36601639	     49.36601639	     11.09950304	    -18.19060031	     11.16532820	    -10.22246381	      5.41311568	      1.18233249	     25.72107925	    -17.36315406	      1.32964988	     50.99113535	     44.93441640	      0.00000000	      0.00000000	      4.12814622	     -8.53290513	     -1.42281881	     29.62989915	     44.70479230	      0.00000000	      0.00000000
     20.02050000	     -2.57390024	     -4.31819432	      4.14476744	      1.06466315	      0.93382418	      0.49234672	      9.92160007	      2.44773145	    -15.01091084	     14.82327641	     14.82327641	      9.61294381	     -0.31238952	     -5.16153718	     30.15860119	    -11.05280989	      1.09398154	     46.26307583	     46.26307583	     11.25240656	    -17.89659113	     11.41489421	    -10.04230341	      5.46988584	      1.51860568	     27.47078123	    -17.89757553	      1.05994939	     52.06783579	     44.91953121	      0.00000000	      0.00000000	      3.05973834	     -8.13485292	     -1.31616393	     29.19124531	     44.67813694	      0.00000000	      0.00000000
     20.03400000	     -2.58351610	     -4.13327064	      4.66587858	      1.06378696	      0.93438425	      0.49235004	      9.13274018	      2.37975997	    -15.29801064	     13.97306656	     13.97306656	      9.61382370	     -0.18376986	     -5.16683128	     30.36488423	    -10.53124815	      0.83975778	     42.57888258	     42.57888258	     11.07855253	    -17.89165804	     11.61220914	    -10.21379957	      5.25375793	      1.05411040	     29.23992063	    -17.69627997	      0.81733042	     54.38901410	     44.86105852	      0.00000000	      0.00000000	      1.76477122	     -8.02838990	     -1.12233961	     28.37232645	     44.64363990	      0.00000000	      0.00000000
     20.04750000	     -2.62409236	     -4.19101981	      5.20191616	      1.06287569	      0.93448918	      0.49226895	      8.54968788	      2.51446134	    -15.76205417	     13.40904242	     13.40904242	      9.66253484	     -0.01557304	     -5.37136761	     30.64363755	    -10.20816367	      0.75902648	     39.01185740	     39.01185740	     10.78648523	    -17.54882277	     11.50376321	    -10.30134678	      5.33625947	      0.88920323	     30.69692000	    -17.80711937	      0.49518251	     56.92974731	     44.79977173	      0.00000000	      0.00000000	      0.62366177	     -7.85950761	     -0.90036816	     27.71012547	     44.61144037	      0.00000000	      0.00000000
     20.06100000	     -2.77955987	     -4.26101956	      5.63976399	      1.06192125	      0.93415174	      0.49204335	      8.15459711	      2.60628345	    -16.28842132	     12.94534586	     12.94534586	      9.63504370	      0.34842476	     -6.17473162	     30.91855215	     -9.89989127	      0.61147932	     35.37773991	     35.37773991	      9.77790331	    -17.08008311	      9.34197116	    -10.36398040	      5.43585438	      1.75291620	     30.87529306	    -18.96500483	     -0.50101801	     61.73754086	     44.71440109	      0.00000000	      0.00000000	      0.06339137	     -7.56686151	     -0.06918594	     27.13155664	     44.55781543	      0.00000000	      0.00000000
